<?xml version="1.0" encoding="utf-8"?>
<!-- Generator: Adobe Illustrator 21.0.0, SVG Export Plug-In . SVG Version: 6.00 Build 0)  -->
<svg version="1.1" id="图层_1" xmlns="http://www.w3.org/2000/svg" xmlns:xlink="http://www.w3.org/1999/xlink" x="0px" y="0px"
	 viewBox="0 0 477 136" style="enable-background:new 0 0 477 136;" xml:space="preserve">
<style type="text/css">
	.st0{fill:url(#SVGID_1_);}
	.st1{fill:url(#SVGID_2_);}
	.st2{fill:url(#SVGID_3_);}
	.st3{fill:#FF9C27;}
	.st4{fill:#FFFFFF;}
	.st5{fill:#F5AF5E;}
	.st6{fill:#FFB45A;}
	.st7{fill:#FFC37A;}
</style>
<linearGradient id="SVGID_1_" gradientUnits="userSpaceOnUse" x1="2.117920e-02" y1="68.0056" x2="477.0212" y2="68.0056">
	<stop  offset="0" style="stop-color:#EF8619"/>
	<stop  offset="1" style="stop-color:#F4A444"/>
</linearGradient>
<path class="st0" d="M225.2,54.5L477,113.8V111V60.2V13.9C477,6.2,470.8,0,463.1,0H13.9C6.3,0,0,6.2,0,13.9v74.4c0,0,0,0,0,0v33.8
	c0,7.6,6.2,13.9,13.9,13.9h33.7h142.9h1.4l16.8-71.2C210.3,57.3,217.8,52.7,225.2,54.5z"/>
<linearGradient id="SVGID_2_" gradientUnits="userSpaceOnUse" x1="2.115129e-02" y1="117.2163" x2="477.0211" y2="117.2163">
	<stop  offset="0" style="stop-color:#EF8619"/>
	<stop  offset="1" style="stop-color:#F4A444"/>
</linearGradient>
<path class="st1" d="M13.9,136h23.5c-3-19.2-18.2-34.5-37.4-37.6v23.7C0,129.8,6.3,136,13.9,136z"/>
<linearGradient id="SVGID_3_" gradientUnits="userSpaceOnUse" x1="2.117920e-02" y1="68.0056" x2="477.0212" y2="68.0056">
	<stop  offset="0" style="stop-color:#FF8B00"/>
	<stop  offset="1" style="stop-color:#F4A444"/>
</linearGradient>
<path class="st2" d="M463.1,0H13.9C6.3,0,0,6.2,0,13.9v74.4c0,0,0,0,0,0v33.8c0,7.6,6.2,13.9,13.9,13.9h33.7h142.9h272.8
	c7.6,0,13.9-6.2,13.9-13.9V111V60.2V13.9C477,6.2,470.8,0,463.1,0z"/>
<path class="st3" d="M0,88.3v10.1c19.2,3.1,34.4,18.3,37.4,37.6h10.1C44.4,111.2,24.8,91.6,0,88.3z"/>
<path class="st4" d="M30.8,43.3c-0.7-1.1-8.9-21.8-8.9-22.6c0-0.2,1.3-0.4,3.4-0.3l3.4,0.1l2.5,6.7c1.4,3.7,2.6,6.7,2.7,6.7
	c0.1,0,2.2-3.1,4.5-6.8l4.3-6.8h7l-1,1.6c-2.9,4.7-13.4,20.7-14.1,21.5C33.4,44.7,31.6,44.6,30.8,43.3L30.8,43.3z"/>
<path class="st4" d="M47.5,44.3c0-0.1,0.7-5.3,1.7-11.7c0.9-6.3,1.7-11.7,1.7-11.9c0-0.2,1.5-0.3,3.3-0.3c3.2,0,3.3,0,3.1,0.9
	c-0.1,0.5-0.9,5.9-1.7,12l-1.5,11h-3.3C49,44.3,47.5,44.3,47.5,44.3L47.5,44.3z"/>
<path class="st4" d="M57.1,43c0-0.7,0.3-3.6,0.7-6.3l0.7-5l5.6-0.1c6.2-0.1,7.1-0.2,8-1.2c0.8-0.7,0.9-2.7,0.2-3.4
	c-0.3-0.3-2.4-0.5-6.7-0.5h-6.2l0.3-2.5c0.5-4-0.2-3.7,7.8-3.7c7.7,0,8.5,0.2,10.4,2.5c1,1.2,1.1,1.7,1.1,4.6c0,1.8-0.2,3.8-0.5,4.4
	c-0.5,1.5-2.6,3.6-4.9,5.1c-1.7,1.1-2.2,1.2-5.7,1.2h-3.8l-0.3,1.8c-0.1,1-0.4,2.4-0.5,3.1l-0.2,1.3h-6.1L57.1,43z"/>
<path class="st4" d="M57.1,43"/>
<path class="st5" d="M457.9,129.4c-0.1-2-1.3-3.4-3.8-4.2l-3.1-0.8v6.4l3.1,0.8C456.5,132.2,457.8,131.5,457.9,129.4z"/>
<path class="st6" d="M477,122.2v-8.4L225.2,54.5c-7.5-1.8-14.9,2.9-16.7,10.3L191.8,136h271.4C470.8,136,477,129.8,477,122.2z"/>
<path class="st7" d="M427.2,129c-0.2,0.7-0.3,1.2-0.5,1.5c-0.1,0.2-0.2,0.4-0.2,0.4c-0.3-0.8-0.5-1.5-0.7-2.3l-4.9-15.9l-5.1-1.4
	l8,23l5.3,1.4l7.9-18.7l-5.1-1.4L427.2,129z"/>
<polygon class="st7" points="438.3,117.4 438.3,136 443.2,136 443.2,118.7 "/>
<path class="st7" d="M454.5,135.3c5.6,1.6,8.4,0,8.3-4.8c-0.2-4.3-2.8-7.2-7.9-8.7l-8.7-2.4V136h4.7v-1.6L454.5,135.3z M450.9,124.4
	l3.1,0.8c2.5,0.7,3.7,2.1,3.8,4.2c-0.1,2.1-1.3,2.8-3.8,2.2l-3.1-0.8V124.4z"/>
</svg>
